<svg id="svg" version="1.1" xmlns="http://www.w3.org/2000/svg" xmlns:xlink="http://www.w3.org/1999/xlink" width="400" height="341.3533834586466" viewBox="0, 0, 400,341.3533834586466"><g id="svgg"><path id="path0" d="M104.124 3.384 C 102.674 3.539,101.769 3.886,100.537 4.762 C 99.631 5.406,97.891 6.618,96.670 7.454 C 94.121 9.200,93.299 9.937,87.428 15.742 C 82.713 20.405,77.730 26.305,75.662 29.674 C 75.474 29.980,74.222 31.921,72.881 33.988 C 71.539 36.055,69.558 39.436,68.479 41.503 C 67.400 43.570,66.230 45.668,65.880 46.167 C 65.530 46.666,65.243 47.175,65.243 47.299 C 65.243 47.423,64.807 48.475,64.273 49.637 C 63.740 50.800,62.877 52.750,62.357 53.971 C 61.836 55.192,61.210 56.652,60.964 57.216 C 60.719 57.780,60.189 59.394,59.786 60.803 C 59.384 62.212,58.692 64.364,58.249 65.585 C 57.249 68.340,56.103 72.199,55.814 73.783 C 55.694 74.441,55.146 76.516,54.596 78.395 C 54.046 80.273,53.293 83.578,52.923 85.739 C 52.552 87.899,52.017 90.911,51.733 92.431 C 51.449 93.951,51.074 96.333,50.899 97.725 C 50.724 99.117,50.349 101.870,50.066 103.843 C 49.783 105.816,49.548 108.275,49.543 109.308 L 49.534 111.187 50.301 110.265 C 50.779 109.689,51.903 109.068,53.288 108.613 C 54.509 108.211,55.767 107.651,56.083 107.368 C 57.083 106.472,59.185 105.923,61.657 105.913 C 64.583 105.901,64.610 105.918,65.908 108.534 C 66.944 110.622,72.610 115.798,73.860 115.799 C 74.100 115.799,75.104 116.106,76.092 116.482 C 77.081 116.857,78.165 117.165,78.501 117.165 C 78.837 117.165,79.304 117.357,79.539 117.592 C 79.773 117.827,81.072 118.192,82.425 118.405 C 83.778 118.617,85.807 118.973,86.934 119.196 C 90.706 119.942,99.557 119.616,103.672 118.579 C 104.424 118.390,105.653 118.088,106.405 117.908 C 107.156 117.728,108.232 117.423,108.796 117.229 C 112.346 116.010,121.793 112.944,123.655 112.407 C 124.876 112.054,127.412 111.232,129.291 110.578 C 131.170 109.925,133.399 109.282,134.244 109.148 C 135.090 109.015,136.440 108.689,137.245 108.424 C 138.050 108.159,139.234 107.942,139.876 107.942 C 140.518 107.942,141.934 107.708,143.023 107.421 C 150.963 105.335,175.620 104.906,185.653 106.680 C 193.439 108.056,194.074 108.186,195.730 108.739 C 196.576 109.022,198.651 109.661,200.342 110.160 C 202.032 110.659,203.723 111.206,204.099 111.375 C 204.475 111.545,205.858 111.976,207.173 112.334 C 208.488 112.692,211.793 113.750,214.518 114.684 C 230.672 120.224,235.175 120.732,248.833 118.554 C 249.952 118.375,251.413 118.001,252.078 117.723 C 252.743 117.445,254.402 116.796,255.764 116.283 C 257.126 115.769,258.241 115.244,258.241 115.115 C 258.241 114.987,258.760 114.601,259.396 114.259 C 260.031 113.917,260.787 113.237,261.076 112.748 C 261.872 111.400,263.640 109.658,264.571 109.304 C 265.064 109.117,265.695 108.362,266.128 107.441 C 266.765 106.085,266.989 105.893,267.928 105.898 C 269.515 105.905,274.075 107.125,275.562 107.939 C 278.634 109.621,280.655 111.054,281.211 111.942 L 281.807 112.895 281.812 111.358 C 281.833 105.020,277.661 80.433,275.815 76.015 C 275.543 75.363,275.313 74.402,275.305 73.879 C 275.297 73.357,275.053 72.314,274.763 71.563 C 274.473 70.811,273.950 69.274,273.601 68.147 C 272.558 64.777,270.000 57.735,268.825 54.996 C 268.221 53.587,267.236 51.281,266.636 49.872 C 266.036 48.463,265.018 46.311,264.374 45.090 C 263.731 43.868,263.089 42.594,262.948 42.257 C 262.598 41.419,259.858 36.920,257.827 33.849 C 256.906 32.457,255.908 30.843,255.608 30.262 C 255.308 29.681,254.433 28.418,253.663 27.455 C 252.893 26.492,251.418 24.582,250.384 23.210 C 246.254 17.729,237.517 9.685,230.474 4.880 L 228.155 3.298 218.689 3.442 C 204.212 3.663,116.630 3.614,111.016 3.382 C 108.292 3.270,105.191 3.270,104.124 3.384 M73.803 103.757 C 74.062 104.274,74.330 104.812,74.398 104.953 C 74.849 105.879,72.819 105.007,72.176 103.999 L 71.423 102.818 72.378 102.818 C 73.077 102.818,73.458 103.069,73.803 103.757 M121.520 104.270 C 121.442 104.505,121.198 104.681,120.979 104.663 C 118.973 104.491,118.995 104.499,119.727 104.184 C 120.758 103.741,121.682 103.785,121.520 104.270 M211.785 104.526 C 212.159 104.768,211.901 104.859,210.825 104.862 C 209.930 104.866,209.436 104.734,209.564 104.526 C 209.832 104.093,211.114 104.093,211.785 104.526 M320.068 137.563 C 319.579 137.745,316.311 140.978,316.311 141.280 C 316.311 141.462,313.855 144.147,311.999 145.994 C 311.225 146.765,310.339 147.857,310.031 148.420 C 309.243 149.860,308.694 150.707,308.194 151.252 C 307.674 151.819,305.038 157.283,305.038 157.793 C 305.038 157.993,304.902 158.155,304.735 158.155 C 304.568 158.155,304.326 158.732,304.197 159.436 C 304.068 160.141,303.769 161.025,303.531 161.401 C 300.818 165.696,299.867 188.221,302.316 190.204 C 302.990 190.750,304.341 195.866,304.352 197.915 C 304.354 198.271,304.909 199.397,305.585 200.416 C 306.261 201.434,306.966 202.815,307.150 203.483 C 307.335 204.151,308.029 205.471,308.693 206.415 C 309.356 207.360,310.114 208.647,310.377 209.275 C 310.640 209.904,311.090 210.418,311.378 210.418 C 312.034 210.418,317.021 215.482,318.593 217.744 C 319.238 218.674,320.064 219.643,320.428 219.898 C 322.874 221.610,325.167 232.429,324.204 237.706 C 323.619 240.905,323.087 242.975,322.728 243.441 C 322.558 243.662,322.299 245.384,322.153 247.267 C 322.007 249.151,321.712 250.904,321.497 251.163 C 321.282 251.422,321.004 253.005,320.879 254.681 C 320.726 256.731,320.408 258.232,319.908 259.266 C 319.306 260.511,319.170 261.385,319.190 263.877 L 319.214 266.951 320.362 267.061 C 322.941 267.308,323.398 265.332,321.097 263.879 C 319.715 263.007,319.548 262.340,320.712 262.340 C 322.362 262.340,323.721 258.585,323.859 253.646 C 323.901 252.152,324.127 250.384,324.362 249.718 C 327.309 241.345,327.860 229.677,325.549 224.594 C 325.036 223.467,324.252 221.405,323.807 220.011 C 322.896 217.163,320.464 213.881,318.731 213.163 C 317.727 212.747,314.297 208.699,313.149 206.576 C 312.336 205.072,310.093 202.568,309.556 202.565 C 309.003 202.561,308.484 201.216,308.079 198.735 C 307.883 197.535,307.272 195.966,306.485 194.646 C 305.322 192.693,305.203 192.261,305.144 189.762 C 305.109 188.254,304.758 185.329,304.365 183.262 C 303.607 179.275,303.670 178.022,304.894 172.673 C 305.163 171.494,305.278 169.897,305.163 168.914 C 304.943 167.019,305.738 163.222,306.773 161.230 C 307.777 159.296,308.004 158.792,308.998 156.277 C 309.518 154.962,310.070 153.740,310.224 153.561 C 310.378 153.383,310.504 152.883,310.504 152.451 C 310.504 151.998,311.079 151.073,311.864 150.265 C 312.611 149.494,313.572 148.237,313.998 147.470 C 314.762 146.099,316.650 144.786,318.789 144.140 C 320.101 143.743,321.285 146.167,320.951 148.569 C 320.832 149.426,320.601 151.180,320.438 152.466 C 320.274 153.752,319.970 154.974,319.763 155.182 C 319.555 155.389,319.379 155.874,319.371 156.260 C 319.363 156.645,319.086 157.723,318.755 158.655 C 318.224 160.152,318.204 160.612,318.583 162.584 C 319.050 165.006,318.955 165.696,317.962 167.106 C 317.282 168.072,317.786 170.453,318.671 170.453 C 318.862 170.453,319.189 171.091,319.399 171.871 C 319.687 172.939,320.490 174.003,322.657 176.185 C 324.239 177.777,325.534 179.214,325.534 179.378 C 325.534 179.542,325.918 179.675,326.388 179.675 C 327.159 179.675,327.242 179.810,327.242 181.070 C 327.242 182.158,327.504 182.785,328.437 183.923 C 329.095 184.726,329.633 185.552,329.633 185.761 C 329.633 185.969,330.248 186.305,330.999 186.507 C 331.751 186.710,332.365 187.002,332.365 187.157 C 332.365 187.312,332.985 187.868,333.742 188.393 C 334.499 188.918,335.651 190.072,336.301 190.958 C 337.106 192.054,337.810 192.635,338.502 192.773 C 339.208 192.914,339.585 193.232,339.729 193.809 C 340.623 197.370,348.484 199.389,350.763 196.643 C 350.998 196.359,351.728 196.245,352.820 196.321 C 355.023 196.475,357.970 195.112,361.145 192.472 C 363.214 190.751,363.592 190.564,364.831 190.654 C 365.955 190.735,366.350 190.592,366.965 189.883 C 367.906 188.798,372.968 186.631,375.178 186.368 C 377.157 186.132,377.455 185.974,377.455 185.163 C 377.455 184.387,377.965 183.974,379.555 183.463 C 380.847 183.047,381.172 182.543,381.883 179.846 C 382.081 179.095,382.708 177.558,383.277 176.430 C 384.194 174.613,384.348 173.859,384.640 169.769 C 384.825 167.180,385.269 164.109,385.653 162.768 C 386.029 161.453,386.336 159.677,386.336 158.820 C 386.336 156.719,386.908 156.013,388.607 156.013 C 390.797 156.013,391.460 156.553,391.460 158.337 C 391.460 159.175,391.757 160.745,392.119 161.826 C 392.481 162.907,392.874 164.637,392.991 165.670 C 393.303 168.431,393.914 170.888,394.446 171.525 C 395.123 172.336,394.382 181.120,393.496 182.775 C 393.328 183.090,393.032 184.942,392.838 186.891 C 392.261 192.694,391.682 194.443,389.155 198.013 C 388.732 198.611,388.386 199.346,388.386 199.645 C 388.386 201.162,384.426 207.487,383.242 207.863 C 382.877 207.979,382.579 208.197,382.579 208.347 C 382.579 208.701,379.823 212.215,379.274 212.561 C 379.044 212.706,378.651 213.013,378.402 213.244 C 377.379 214.191,375.843 215.117,374.637 215.515 C 373.175 215.996,373.088 216.219,374.028 217.069 C 374.536 217.529,374.619 217.829,374.369 218.297 C 373.642 219.655,376.621 218.669,378.542 216.916 C 380.273 215.336,380.738 214.979,381.669 214.514 C 382.201 214.247,382.843 213.640,383.094 213.163 C 383.345 212.687,384.139 211.653,384.858 210.867 C 386.756 208.791,389.015 205.468,389.276 204.367 C 389.401 203.844,389.688 203.185,389.916 202.904 C 390.534 202.137,392.143 198.739,392.143 198.201 C 392.143 197.700,394.089 194.689,394.661 194.304 C 395.080 194.023,395.160 188.616,394.757 187.796 C 394.535 187.343,394.675 187.112,395.363 186.798 C 396.668 186.204,396.760 185.477,396.701 176.260 C 396.655 169.108,396.548 167.515,395.967 165.310 C 395.593 163.891,395.176 161.700,395.042 160.443 C 394.907 159.185,394.663 158.155,394.499 158.155 C 394.336 158.155,393.984 157.633,393.717 156.995 C 393.450 156.356,393.016 155.703,392.751 155.543 C 392.487 155.383,391.910 154.351,391.469 153.251 C 389.972 149.512,387.810 148.594,385.541 150.734 C 383.889 152.292,383.602 153.610,381.913 167.378 C 380.798 176.469,380.450 177.812,378.605 180.163 C 376.186 183.244,375.669 183.658,373.892 183.924 C 372.976 184.061,371.827 184.453,371.339 184.794 C 370.852 185.135,369.788 185.510,368.977 185.627 C 368.165 185.744,367.166 186.059,366.756 186.327 C 366.347 186.595,365.372 186.916,364.590 187.041 C 363.579 187.203,363.117 187.462,362.993 187.938 C 362.896 188.306,362.499 188.691,362.109 188.793 C 361.719 188.895,361.401 189.108,361.401 189.267 C 361.401 189.425,360.747 189.729,359.949 189.942 C 359.150 190.154,358.252 190.547,357.953 190.813 C 357.654 191.080,356.457 191.671,355.295 192.127 C 354.132 192.582,352.686 193.259,352.081 193.631 C 351.477 194.002,350.382 194.418,349.647 194.554 C 348.913 194.690,347.914 195.010,347.427 195.264 C 346.209 195.899,344.924 195.846,344.248 195.132 C 343.936 194.804,343.270 194.227,342.768 193.851 C 340.748 192.339,339.539 191.197,339.539 190.801 C 339.539 190.572,339.155 190.023,338.685 189.582 C 338.215 189.140,337.831 188.641,337.831 188.473 C 337.831 188.054,336.936 187.190,336.501 187.190 C 335.990 187.190,334.330 185.471,333.737 184.328 C 333.459 183.790,332.575 182.773,331.773 182.068 C 330.972 181.362,330.316 180.623,330.316 180.424 C 330.316 180.226,330.036 179.974,329.693 179.866 C 329.351 179.757,328.554 178.978,327.922 178.135 C 327.290 177.291,326.633 176.601,326.462 176.601 C 325.756 176.601,321.818 172.121,321.440 170.888 C 321.223 170.179,320.874 169.247,320.663 168.818 C 320.378 168.234,320.386 167.747,320.698 166.886 C 320.927 166.253,321.260 164.068,321.439 162.031 C 321.648 159.655,321.929 158.204,322.224 157.985 C 322.545 157.745,322.780 156.079,323.009 152.415 C 323.223 148.995,323.479 147.097,323.751 146.929 C 323.989 146.782,324.338 145.097,324.570 142.971 L 324.974 139.270 323.882 138.294 C 322.819 137.345,321.392 137.071,320.068 137.563 M369.257 219.168 C 368.224 219.809,367.225 220.534,367.037 220.781 C 366.445 221.557,363.689 222.956,361.913 223.383 C 359.425 223.980,357.967 224.922,356.618 226.803 C 355.960 227.718,355.106 228.644,354.720 228.859 C 353.935 229.296,353.034 230.894,352.694 232.451 C 352.571 233.015,352.045 233.867,351.525 234.346 C 350.199 235.565,348.490 240.554,347.550 245.944 C 347.272 247.541,346.748 250.307,346.385 252.092 C 346.023 253.877,345.469 256.874,345.155 258.753 C 344.841 260.632,344.308 262.861,343.972 263.706 C 342.577 267.207,342.687 272.031,344.174 272.596 C 345.229 272.998,345.251 273.612,344.210 273.612 C 343.416 273.612,342.196 274.679,341.847 275.678 C 341.478 276.737,343.443 278.593,344.449 278.134 C 345.308 277.743,345.333 277.644,345.324 274.562 C 345.314 271.331,345.782 268.003,346.341 267.327 C 346.512 267.120,346.762 266.336,346.898 265.585 C 347.034 264.833,347.376 263.764,347.658 263.208 C 348.143 262.249,348.461 260.335,349.103 254.483 C 349.258 253.074,349.612 250.845,349.890 249.530 C 350.357 247.324,350.683 245.630,351.548 240.931 C 351.727 239.960,352.096 238.980,352.367 238.755 C 352.639 238.529,352.862 238.095,352.863 237.789 C 352.868 236.312,353.593 234.789,354.565 234.215 C 355.133 233.880,355.845 233.126,356.148 232.540 C 357.136 230.630,362.211 225.882,363.760 225.417 C 364.529 225.187,365.158 224.869,365.158 224.711 C 365.158 224.553,365.376 224.424,365.642 224.424 C 365.908 224.424,366.177 224.274,366.240 224.090 C 366.302 223.907,367.506 223.356,368.915 222.867 C 370.325 222.377,371.795 221.682,372.183 221.321 C 372.570 220.961,373.052 220.666,373.253 220.666 C 374.013 220.666,374.059 219.148,373.317 218.531 C 372.305 217.690,371.415 217.830,369.257 219.168 M195.464 276.006 C 194.969 276.467,194.705 277.115,194.705 277.867 C 194.705 278.502,194.379 279.764,193.981 280.672 C 193.583 281.580,192.982 283.476,192.647 284.885 C 191.567 289.416,191.007 291.848,190.639 293.595 C 190.441 294.535,189.904 296.687,189.446 298.377 C 188.987 300.068,188.511 302.220,188.386 303.160 C 188.262 304.099,187.785 306.060,187.328 307.516 C 186.871 308.973,186.208 311.374,185.855 312.851 C 185.502 314.329,185.061 315.827,184.875 316.181 C 184.689 316.534,184.426 317.515,184.290 318.360 C 184.155 319.206,183.373 321.926,182.554 324.405 C 181.735 326.884,180.963 329.958,180.840 331.237 C 180.716 332.515,180.096 335.148,179.462 337.086 C 178.828 339.025,178.309 340.832,178.309 341.100 C 178.309 341.521,185.334 341.588,229.377 341.588 C 257.464 341.588,280.442 341.473,280.440 341.332 C 280.438 341.191,280.218 340.354,279.950 339.472 C 279.064 336.554,280.105 329.928,281.586 329.054 C 283.243 328.076,283.196 325.938,281.487 324.564 C 277.115 321.051,276.228 312.914,279.649 307.719 C 281.214 305.342,281.943 304.782,282.677 305.391 C 283.386 305.979,283.610 305.176,283.033 304.109 C 282.509 303.140,281.948 302.695,278.053 300.161 C 273.308 297.073,264.396 292.415,259.949 290.697 C 259.291 290.443,258.583 290.107,258.374 289.949 C 258.166 289.792,257.321 289.448,256.496 289.184 C 255.671 288.920,252.075 287.675,248.506 286.416 C 244.936 285.158,241.247 283.931,240.307 283.690 C 239.368 283.449,237.370 282.916,235.867 282.505 C 229.564 280.782,225.447 279.819,222.716 279.431 C 221.119 279.204,218.890 278.718,217.763 278.352 C 216.443 277.923,213.888 277.562,210.589 277.339 C 207.771 277.149,204.389 276.780,203.074 276.521 C 201.759 276.261,200.068 275.957,199.317 275.844 C 198.565 275.731,197.562 275.562,197.087 275.469 C 196.510 275.356,195.971 275.534,195.464 276.006 M131.170 275.999 C 130.137 276.137,127.831 276.423,126.046 276.633 C 124.261 276.844,122.263 277.177,121.605 277.373 C 120.948 277.570,119.488 277.636,118.360 277.521 C 116.851 277.367,115.905 277.464,114.774 277.890 C 113.928 278.208,112.084 278.598,110.675 278.755 C 107.001 279.165,100.829 280.312,99.231 280.882 C 98.480 281.150,97.250 281.478,96.499 281.611 C 93.264 282.182,77.716 287.065,74.646 288.474 C 74.078 288.735,71.667 289.701,69.290 290.621 C 64.869 292.332,57.694 296.082,53.507 298.868 C 52.219 299.725,50.682 300.726,50.091 301.091 C 48.135 302.301,43.590 305.933,39.283 309.728 C 32.708 315.521,26.886 324.336,23.963 332.925 C 22.757 336.468,21.862 339.852,21.862 340.869 L 21.862 341.588 87.447 341.588 L 153.032 341.588 153.024 340.649 C 153.020 340.132,152.739 339.095,152.401 338.343 C 152.062 337.592,151.508 335.824,151.169 334.415 C 150.831 333.006,149.820 329.240,148.923 326.046 C 148.026 322.852,147.122 319.240,146.915 318.019 C 146.707 316.798,146.311 314.799,146.034 313.578 C 145.757 312.357,145.528 310.971,145.524 310.499 C 145.520 310.026,145.201 309.052,144.816 308.333 C 144.431 307.614,143.960 306.156,143.770 305.093 C 143.420 303.138,142.925 301.221,141.729 297.182 C 141.368 295.961,140.937 294.270,140.772 293.424 C 140.607 292.579,140.205 290.965,139.880 289.838 C 139.554 288.711,139.073 286.821,138.810 285.640 C 138.548 284.458,138.031 282.613,137.661 281.541 C 137.292 280.468,136.870 278.745,136.724 277.711 L 136.458 275.833 134.753 275.790 C 133.816 275.767,132.203 275.861,131.170 275.999 M108.113 280.786 C 107.997 280.974,107.287 281.127,106.535 281.127 C 105.711 281.127,105.253 280.992,105.380 280.786 C 105.496 280.598,106.206 280.444,106.957 280.444 C 107.781 280.444,108.240 280.580,108.113 280.786 M87.276 286.934 C 87.008 287.368,85.726 287.368,85.056 286.934 C 84.681 286.692,84.939 286.602,86.015 286.598 C 86.910 286.595,87.404 286.726,87.276 286.934 M228.489 287.361 C 229.027 288.810,228.240 289.405,226.803 288.636 C 226.251 288.340,226.211 288.159,226.538 287.440 C 227.020 286.383,228.109 286.339,228.489 287.361 M73.730 291.610 C 72.461 293.138,70.367 293.301,70.367 291.871 C 70.367 291.197,70.564 291.058,71.648 290.969 C 73.585 290.808,74.230 291.007,73.730 291.610 M250.869 294.315 C 251.533 294.570,251.589 295.816,250.936 295.816 C 250.677 295.816,250.390 295.431,250.301 294.962 C 250.120 294.014,250.111 294.024,250.869 294.315 M270.694 297.158 C 270.802 297.333,270.731 297.575,270.535 297.696 C 270.062 297.988,268.147 297.554,268.147 297.155 C 268.147 296.743,270.439 296.746,270.694 297.158 M260.183 298.832 C 259.379 298.975,259.125 298.723,259.386 298.043 C 259.568 297.569,259.662 297.577,260.205 298.114 C 260.795 298.696,260.794 298.723,260.183 298.832 M273.612 298.890 C 273.612 299.322,272.914 299.322,272.246 298.890 C 271.847 298.632,271.941 298.558,272.673 298.553 C 273.190 298.551,273.612 298.702,273.612 298.890 M56.473 299.712 C 56.660 300.199,55.729 301.281,55.123 301.281 C 54.303 301.281,53.976 300.475,54.541 299.851 C 55.209 299.113,56.216 299.040,56.473 299.712 M276.703 300.811 C 276.872 301.257,277.167 301.623,277.357 301.623 C 277.548 301.623,277.673 301.990,277.636 302.438 C 277.594 302.946,277.403 303.191,277.130 303.086 C 276.888 302.993,276.776 302.780,276.880 302.612 C 276.983 302.443,276.922 302.306,276.742 302.306 C 276.261 302.306,274.295 300.508,274.295 300.068 C 274.295 299.316,276.379 299.959,276.703 300.811 M274.968 307.430 C 274.968 308.752,274.424 309.394,274.218 308.315 C 273.978 307.061,274.300 305.522,274.678 306.117 C 274.837 306.369,274.968 306.960,274.968 307.430 M48.456 310.466 C 49.170 310.919,47.974 312.553,46.929 312.553 C 46.481 312.553,46.103 312.438,46.089 312.297 C 46.075 312.156,46.001 311.706,45.924 311.296 C 45.745 310.343,47.403 309.799,48.456 310.466 M33.162 320.680 C 33.025 321.189,32.695 321.605,32.426 321.605 C 31.797 321.605,31.592 320.179,32.128 319.533 C 32.770 318.760,33.468 319.535,33.162 320.680 M364.019 327.469 C 363.894 327.595,363.792 328.269,363.792 328.968 C 363.792 329.666,363.562 330.678,363.281 331.216 C 363.001 331.754,362.770 332.444,362.769 332.749 C 362.768 333.054,362.442 334.038,362.045 334.935 C 361.267 336.695,361.675 338.589,362.937 339.074 C 363.698 339.366,363.559 340.222,362.750 340.222 C 362.365 340.222,361.596 339.988,361.042 339.701 C 360.488 339.414,360.034 339.327,360.034 339.507 C 360.034 339.687,359.727 339.932,359.351 340.051 C 358.975 340.170,358.668 340.565,358.668 340.928 C 358.668 341.554,358.962 341.588,364.349 341.588 L 370.030 341.588 369.836 340.398 C 369.397 337.691,365.118 327.247,364.446 327.243 C 364.337 327.242,364.145 327.344,364.019 327.469 M26.793 334.073 C 26.501 335.452,25.176 338.514,24.873 338.514 C 24.381 338.514,24.557 334.872,25.069 334.447 C 25.330 334.230,25.736 333.327,25.972 332.441 L 26.401 330.828 26.688 332.024 C 26.846 332.681,26.893 333.604,26.793 334.073 M367.049 335.781 C 367.678 337.470,368.099 339.931,367.657 339.334 C 367.504 339.127,367.055 338.788,366.659 338.580 C 366.125 338.299,365.887 337.754,365.734 336.468 C 365.366 333.355,366.018 333.014,367.049 335.781 " stroke="none" fill="#3d6abe" fill-rule="evenodd"></path><path id="path1" d="M150.640 106.968 C 148.155 107.380,139.944 108.929,138.002 109.352 C 137.156 109.536,135.850 109.823,135.098 109.990 C 132.644 110.534,127.614 112.074,127.218 112.402 C 127.005 112.579,126.078 112.819,125.158 112.935 C 124.237 113.052,123.149 113.356,122.740 113.611 C 121.837 114.173,114.892 116.627,111.358 117.632 C 109.949 118.033,108.565 118.514,108.284 118.701 C 108.002 118.888,107.003 119.220,106.063 119.438 C 105.124 119.656,103.740 120.005,102.989 120.213 C 99.129 121.282,87.231 120.988,82.389 119.705 C 76.491 118.142,75.444 118.564,74.653 122.824 C 74.159 125.482,72.475 133.604,71.788 136.635 C 71.302 138.781,70.509 143.757,69.691 149.787 C 69.309 152.605,68.851 155.909,68.673 157.131 C 68.496 158.352,68.179 162.348,67.968 166.012 C 67.539 173.493,67.383 174.198,66.207 173.973 C 65.527 173.843,62.146 168.956,61.533 167.216 C 61.465 167.024,61.068 166.328,60.649 165.670 C 57.924 161.388,56.833 159.657,56.533 159.138 C 56.345 158.813,55.590 157.498,54.854 156.216 C 54.119 154.934,53.409 153.809,53.276 153.715 C 53.143 153.621,52.535 152.545,51.925 151.324 C 50.530 148.531,50.633 148.615,49.832 149.621 C 47.697 152.297,46.470 155.495,45.769 160.205 C 45.299 163.357,45.384 170.095,45.923 172.502 C 46.196 173.723,46.582 175.645,46.779 176.772 C 46.977 177.899,47.850 180.282,48.718 182.067 C 49.587 183.851,50.471 185.682,50.683 186.136 C 51.800 188.528,59.121 195.642,62.681 197.795 C 64.293 198.769,67.635 201.973,67.635 202.544 C 67.635 202.928,69.912 208.373,71.598 212.020 C 72.048 212.995,72.417 214.013,72.417 214.284 C 72.417 214.554,72.628 214.950,72.885 215.164 C 73.143 215.378,73.679 216.435,74.076 217.512 C 74.473 218.589,75.787 221.045,76.996 222.969 C 78.204 224.893,79.370 227.001,79.585 227.654 C 79.801 228.306,80.637 229.576,81.445 230.475 C 82.252 231.374,83.280 232.650,83.728 233.310 C 87.779 239.277,98.081 249.980,102.962 253.292 C 103.692 253.787,105.303 255.095,106.543 256.198 C 107.782 257.301,109.655 258.652,110.705 259.200 C 112.361 260.064,114.097 261.059,118.702 263.784 C 120.064 264.589,123.178 266.051,124.741 266.619 C 125.432 266.870,126.405 267.341,126.902 267.667 C 127.399 267.993,129.754 268.914,132.135 269.715 L 136.464 271.171 137.103 273.331 C 137.455 274.519,138.180 276.721,138.716 278.224 C 139.251 279.727,139.839 281.725,140.022 282.664 C 141.603 290.782,144.154 299.892,145.054 300.639 C 145.308 300.850,152.983 300.971,165.726 300.965 C 189.438 300.955,186.563 301.666,188.174 295.413 C 188.771 293.098,189.567 290.184,189.944 288.938 C 190.321 287.691,190.776 285.770,190.954 284.668 C 191.133 283.566,191.423 282.280,191.599 281.810 C 191.988 280.773,193.889 274.148,194.170 272.853 C 194.380 271.887,195.582 270.538,196.233 270.538 C 196.439 270.538,198.600 269.757,201.036 268.802 C 208.076 266.042,208.782 265.744,209.526 265.223 C 209.912 264.953,210.422 264.731,210.659 264.731 C 210.895 264.731,211.929 264.193,212.957 263.535 C 213.985 262.878,214.952 262.340,215.106 262.340 C 215.260 262.340,216.686 261.494,218.275 260.461 C 219.864 259.428,221.351 258.582,221.580 258.582 C 221.808 258.582,223.118 257.610,224.491 256.422 C 225.863 255.233,227.677 253.732,228.523 253.087 C 233.828 249.035,244.502 237.995,247.767 233.183 C 248.229 232.502,249.241 231.188,250.016 230.263 C 250.791 229.337,251.601 228.068,251.816 227.441 C 252.031 226.815,252.583 225.701,253.043 224.965 C 253.503 224.230,254.300 222.846,254.813 221.891 C 257.265 217.328,257.247 217.367,260.403 210.248 C 261.236 208.369,262.243 206.110,262.641 205.228 C 263.039 204.346,263.365 203.454,263.365 203.247 C 263.365 202.150,264.719 200.754,268.176 198.292 C 274.491 193.793,280.622 187.338,281.375 184.395 C 281.613 183.468,282.189 182.208,282.656 181.596 C 283.460 180.542,283.836 179.301,285.051 173.698 C 285.766 170.401,285.786 159.151,285.078 158.058 C 284.809 157.642,284.347 156.250,284.051 154.965 C 283.307 151.730,280.686 147.731,280.252 149.167 C 279.908 150.301,278.298 153.166,276.159 156.447 C 274.996 158.232,273.391 160.922,272.592 162.425 C 271.794 163.928,270.866 165.465,270.530 165.841 C 270.194 166.217,269.337 167.600,268.625 168.915 C 267.914 170.231,267.229 171.383,267.104 171.477 C 266.978 171.571,266.620 172.148,266.307 172.758 C 265.660 174.021,264.606 174.229,264.057 173.202 C 263.861 172.836,263.469 169.338,263.187 165.431 C 262.511 156.078,261.977 151.280,260.914 145.004 C 260.064 139.989,258.299 131.209,257.206 126.558 C 256.676 124.304,256.142 121.815,256.019 121.027 C 255.654 118.683,254.903 118.437,250.897 119.348 C 240.355 121.747,229.054 121.208,219.983 117.874 C 214.483 115.853,211.271 114.779,210.721 114.776 C 210.417 114.775,209.769 114.459,209.280 114.074 C 208.791 113.690,207.579 113.234,206.587 113.061 C 205.594 112.888,203.783 112.375,202.562 111.921 C 201.341 111.467,199.112 110.827,197.609 110.499 C 196.106 110.171,194.591 109.755,194.243 109.574 C 193.895 109.394,192.742 109.117,191.681 108.959 C 190.620 108.801,187.007 108.200,183.652 107.624 C 177.227 106.520,155.899 106.096,150.640 106.968 M117.506 120.932 C 122.934 121.499,129.588 124.406,133.550 127.942 C 134.697 128.966,135.792 129.804,135.982 129.804 C 136.595 129.804,137.645 132.659,137.653 134.347 C 137.672 138.535,134.387 140.022,129.754 137.921 C 121.023 133.961,109.131 133.600,99.852 137.013 C 92.856 139.586,92.035 139.559,90.044 136.686 C 87.928 133.632,90.784 128.666,96.328 125.761 C 96.985 125.416,98.676 124.507,100.085 123.740 C 104.431 121.374,111.241 120.277,117.506 120.932 M223.363 121.422 C 224.182 121.711,225.489 121.947,226.269 121.947 C 227.154 121.947,228.452 122.328,229.727 122.961 C 230.849 123.519,231.887 123.980,232.032 123.986 C 232.685 124.012,237.041 127.021,238.458 128.423 C 244.430 134.337,241.450 140.705,233.988 137.975 C 225.769 134.969,219.762 134.091,212.879 134.892 C 210.876 135.124,209.081 135.433,208.889 135.577 C 208.697 135.721,207.617 136.035,206.490 136.274 C 205.363 136.513,203.365 137.164,202.050 137.720 C 197.294 139.734,195.031 139.357,193.731 136.335 C 193.329 135.400,193.094 134.355,193.210 134.013 C 194.121 131.317,194.960 130.053,196.845 128.534 C 201.002 125.186,201.748 124.674,203.416 124.017 C 204.355 123.648,206.123 122.923,207.344 122.407 C 211.573 120.620,219.678 120.122,223.363 121.422 M122.739 142.733 C 132.782 147.732,134.104 162.116,125.192 169.417 C 122.901 171.294,122.146 171.668,119.004 172.480 C 104.692 176.182,94.282 158.310,103.834 146.437 C 108.273 140.919,116.037 139.398,122.739 142.733 M217.933 141.402 C 222.372 142.553,223.657 143.481,226.438 147.542 C 229.449 151.938,230.442 158.097,228.801 162.197 C 223.413 175.661,206.711 176.685,199.995 163.962 L 198.642 161.401 198.644 157.301 C 198.645 153.100,199.317 150.094,200.588 148.610 C 200.859 148.293,201.727 147.160,202.517 146.090 C 205.358 142.245,212.641 140.030,217.933 141.402 M140.222 212.280 C 142.291 213.200,145.203 214.115,149.274 215.124 C 152.558 215.938,179.040 215.935,182.579 215.120 C 187.248 214.045,188.068 213.817,190.094 213.030 C 194.126 211.463,194.556 211.334,196.243 211.193 C 200.308 210.854,203.185 216.170,200.659 219.355 C 198.962 221.495,193.849 225.648,191.666 226.659 C 190.753 227.082,189.892 227.614,189.751 227.841 C 189.419 228.378,182.528 231.597,181.710 231.597 C 181.365 231.597,180.988 231.749,180.874 231.934 C 180.759 232.119,179.789 232.507,178.719 232.796 C 177.648 233.084,175.696 233.663,174.381 234.081 C 170.897 235.190,160.416 235.178,157.301 234.063 C 156.174 233.660,154.637 233.181,153.886 232.999 C 150.667 232.220,143.208 228.871,141.588 227.478 C 141.213 227.155,140.137 226.500,139.197 226.022 C 137.037 224.925,131.939 220.433,131.129 218.914 C 128.164 213.350,133.640 209.354,140.222 212.280 M304.793 268.330 C 302.776 268.874,299.037 270.684,296.766 272.217 C 294.869 273.497,293.939 276.260,293.938 280.615 C 293.937 284.069,293.297 285.095,290.244 286.537 C 288.445 287.387,287.808 287.946,286.239 290.057 L 284.372 292.567 284.387 296.497 C 284.398 299.547,284.532 300.656,284.983 301.452 C 286.193 303.587,285.816 304.951,283.378 307.246 C 277.906 312.399,277.808 317.661,283.073 323.607 C 285.007 325.789,285.020 326.892,283.161 330.607 C 281.426 334.073,281.268 336.245,282.517 339.448 L 283.348 341.578 319.757 341.583 L 356.167 341.588 356.561 340.820 C 356.778 340.397,357.100 339.821,357.278 339.539 C 362.086 331.925,365.508 316.072,363.779 309.431 C 362.864 305.916,361.386 301.486,360.965 300.994 C 360.698 300.682,360.385 300.161,360.270 299.836 C 359.555 297.819,353.933 290.062,351.564 287.826 C 347.682 284.162,346.338 283.008,344.663 281.901 C 343.629 281.218,341.885 279.852,340.785 278.865 C 339.686 277.878,338.149 276.770,337.369 276.403 C 336.590 276.036,335.041 275.027,333.928 274.161 C 332.815 273.296,331.662 272.586,331.366 272.584 C 331.070 272.582,329.983 272.187,328.950 271.705 C 321.874 268.405,310.444 266.808,304.793 268.330 " stroke="none" fill="#e9b114" fill-rule="evenodd"></path><path id="path2" d="M0.000 170.794 L 0.000 341.588 10.047 341.588 L 20.094 341.588 20.778 338.770 C 21.798 334.569,22.408 332.540,23.020 331.313 C 23.322 330.707,23.570 330.040,23.570 329.831 C 23.570 329.444,24.290 328.013,25.561 325.875 C 25.952 325.218,26.572 324.039,26.939 323.255 C 27.503 322.050,29.886 318.308,30.817 317.165 C 36.429 310.272,44.575 302.846,49.699 299.952 C 50.828 299.314,52.068 298.507,52.456 298.158 C 52.844 297.809,53.277 297.523,53.418 297.523 C 53.559 297.523,54.165 297.150,54.763 296.693 C 55.362 296.237,58.003 294.767,60.633 293.427 C 63.263 292.087,65.560 290.846,65.739 290.670 C 65.917 290.494,66.282 290.350,66.550 290.350 C 67.098 290.350,69.701 289.259,74.405 287.058 C 76.155 286.238,77.693 285.568,77.820 285.568 C 77.948 285.568,80.051 284.940,82.493 284.173 C 89.524 281.965,90.030 281.824,92.895 281.281 C 94.387 280.998,96.128 280.549,96.765 280.283 C 97.402 280.017,99.831 279.401,102.164 278.915 C 107.435 277.817,111.116 276.890,112.895 276.212 C 113.665 275.919,115.394 275.685,116.858 275.677 C 118.286 275.669,119.900 275.512,120.444 275.328 C 121.468 274.984,128.846 274.037,133.049 273.710 C 138.525 273.285,138.171 271.739,132.135 269.712 C 129.754 268.913,127.399 267.993,126.902 267.667 C 126.405 267.341,125.432 266.870,124.741 266.619 C 122.982 265.980,119.979 264.552,118.360 263.585 C 114.653 261.369,110.270 258.881,109.575 258.597 C 109.146 258.422,107.492 257.117,105.898 255.698 C 104.305 254.278,102.815 253.117,102.588 253.117 C 102.147 253.117,98.971 250.174,92.793 244.041 C 89.366 240.638,85.991 236.643,83.728 233.310 C 83.280 232.650,82.252 231.374,81.445 230.475 C 80.637 229.576,79.801 228.306,79.585 227.654 C 79.370 227.001,78.204 224.893,76.996 222.969 C 75.787 221.045,74.473 218.589,74.076 217.512 C 73.679 216.435,73.143 215.378,72.885 215.164 C 72.628 214.950,72.417 214.554,72.417 214.284 C 72.417 214.013,72.048 212.995,71.598 212.020 C 70.368 209.360,67.745 203.176,67.490 202.337 C 67.210 201.411,65.222 199.729,61.486 197.254 C 57.623 194.695,49.872 186.730,49.872 185.318 C 49.872 185.247,49.423 184.217,48.874 183.030 C 46.108 177.051,45.345 173.313,45.328 165.670 C 45.315 159.490,45.416 158.956,47.849 152.348 C 49.819 146.999,49.823 146.664,48.140 130.316 C 47.506 124.157,47.897 107.111,48.803 101.452 C 50.262 92.336,51.281 87.063,52.765 80.956 C 53.061 79.735,53.675 77.122,54.129 75.149 C 55.671 68.440,59.952 56.081,62.191 51.875 C 62.555 51.192,62.852 50.447,62.852 50.220 C 62.852 49.051,68.572 38.272,72.010 32.963 C 74.392 29.283,76.964 25.467,77.189 25.278 C 77.301 25.184,79.001 23.192,80.968 20.852 C 84.575 16.559,88.915 12.153,92.058 9.591 C 95.874 6.482,99.961 3.490,100.714 3.257 C 101.154 3.120,130.376 3.009,165.652 3.010 L 229.792 3.011 231.292 3.772 C 232.909 4.593,233.879 5.338,236.573 7.829 C 237.525 8.709,238.832 9.786,239.477 10.222 C 241.135 11.343,248.703 19.150,251.093 22.203 C 252.195 23.612,253.314 25.016,253.580 25.323 C 254.036 25.850,254.687 26.773,258.717 32.597 C 260.130 34.638,264.731 42.547,264.731 42.933 C 264.731 43.002,265.710 45.090,266.907 47.575 C 268.103 50.059,269.410 52.899,269.810 53.886 C 270.210 54.872,270.870 56.486,271.275 57.472 C 271.680 58.459,272.209 60.111,272.450 61.144 C 272.996 63.485,274.210 67.239,274.714 68.147 C 274.922 68.523,275.440 70.137,275.865 71.734 C 276.290 73.330,276.890 75.482,277.198 76.516 C 278.462 80.750,279.152 83.810,279.912 88.546 C 280.175 90.184,280.470 91.654,280.568 91.812 C 280.666 91.970,280.989 94.012,281.286 96.349 C 281.582 98.686,281.972 100.905,282.152 101.281 C 283.089 103.240,283.098 135.084,282.162 138.128 C 281.606 139.936,281.520 148.233,282.047 149.301 C 283.088 151.417,284.543 155.081,284.543 155.587 C 284.543 155.897,284.867 156.902,285.262 157.822 C 287.568 163.183,285.052 179.242,280.844 186.023 C 278.597 189.643,272.774 196.072,271.741 196.072 C 270.276 196.072,263.371 201.931,263.366 203.178 C 263.365 203.424,263.039 204.346,262.641 205.228 C 262.243 206.110,261.238 208.369,260.408 210.248 C 259.578 212.126,258.609 214.278,258.255 215.030 C 257.901 215.781,257.296 217.088,256.911 217.933 C 256.151 219.601,254.699 222.243,253.175 224.730 C 252.645 225.595,252.035 226.815,251.818 227.441 C 251.602 228.068,250.807 229.317,250.053 230.218 C 249.299 231.119,248.181 232.556,247.569 233.412 C 243.483 239.124,234.064 248.854,228.523 253.087 C 227.677 253.732,225.863 255.233,224.491 256.422 C 223.118 257.610,221.808 258.582,221.580 258.582 C 221.351 258.582,219.864 259.428,218.275 260.461 C 216.686 261.494,215.260 262.340,215.106 262.340 C 214.952 262.340,213.985 262.878,212.957 263.535 C 211.929 264.193,210.895 264.731,210.659 264.731 C 210.422 264.731,209.926 264.941,209.555 265.199 C 208.736 265.767,205.791 266.998,200.342 269.048 C 198.087 269.896,195.897 270.758,195.474 270.963 C 193.860 271.747,195.055 273.612,197.172 273.612 C 197.841 273.612,200.673 273.936,203.464 274.331 C 206.256 274.726,210.231 275.166,212.297 275.308 C 214.758 275.477,216.762 275.825,218.104 276.316 C 219.231 276.728,221.076 277.295,222.203 277.574 C 225.454 278.381,230.886 279.788,233.305 280.450 C 234.526 280.784,236.832 281.399,238.429 281.817 C 244.389 283.376,253.623 286.538,255.902 287.799 C 256.401 288.075,257.028 288.301,257.296 288.301 C 257.564 288.301,258.540 288.684,259.464 289.153 C 260.388 289.622,261.268 290.006,261.420 290.007 C 261.987 290.010,271.808 295.001,273.681 296.237 C 274.752 296.945,275.735 297.523,275.866 297.523 C 275.997 297.523,276.942 298.100,277.967 298.804 C 281.637 301.327,283.362 302.279,284.287 302.292 C 285.289 302.307,285.523 301.714,284.799 300.991 C 284.506 300.698,284.372 299.309,284.372 296.565 L 284.372 292.567 286.236 290.061 C 287.791 287.969,288.473 287.367,290.366 286.414 C 293.462 284.855,294.266 283.521,293.764 280.776 C 292.516 273.949,299.463 268.210,309.479 267.795 C 315.632 267.539,315.615 267.551,316.321 263.133 C 316.521 261.881,316.745 260.758,316.820 260.637 C 316.895 260.516,317.275 258.505,317.666 256.169 C 318.056 253.833,318.676 250.538,319.044 248.847 C 323.225 229.653,322.121 224.318,311.921 214.406 C 307.220 209.837,302.132 200.487,300.456 193.339 C 300.214 192.306,299.763 190.866,299.454 190.141 C 298.072 186.894,298.064 172.092,299.443 167.037 C 299.724 166.003,300.155 164.313,300.400 163.279 C 303.280 151.123,315.539 134.927,321.862 134.927 C 324.455 134.927,325.935 135.791,327.049 137.954 C 328.009 139.820,327.407 144.190,323.630 162.767 C 322.418 168.728,323.021 169.856,332.579 179.505 C 334.068 181.008,336.295 183.313,337.529 184.629 C 341.165 188.505,344.549 191.588,345.850 192.208 C 347.540 193.014,349.250 192.369,361.913 186.146 C 363.792 185.222,367.558 183.399,370.282 182.093 C 376.190 179.261,376.945 178.633,377.384 176.185 C 377.562 175.193,378.260 171.460,378.936 167.891 C 379.612 164.321,380.267 160.786,380.392 160.034 C 380.517 159.283,380.760 158.396,380.932 158.063 C 381.104 157.730,381.382 156.246,381.551 154.764 C 382.305 148.158,387.181 144.860,391.334 148.149 C 392.720 149.247,395.901 154.861,395.901 156.209 C 395.901 156.548,396.285 157.391,396.755 158.082 C 397.225 158.773,397.609 159.619,397.609 159.961 C 397.609 160.950,399.409 166.695,399.719 166.695 C 399.874 166.695,400.000 129.189,400.000 83.348 L 400.000 0.000 200.000 0.000 L 0.000 0.000 0.000 170.794 M399.187 186.763 C 399.091 187.092,398.904 187.976,398.772 188.728 C 398.118 192.466,394.172 202.502,392.661 204.270 C 392.420 204.552,391.914 205.397,391.535 206.149 C 389.494 210.205,383.511 216.685,378.309 220.475 C 375.439 222.565,373.529 223.696,367.549 226.847 C 367.267 226.995,366.010 227.602,364.754 228.196 C 361.526 229.724,356.116 235.568,355.157 238.564 C 354.970 239.147,354.535 240.435,354.189 241.425 C 353.844 242.416,353.396 244.568,353.194 246.208 C 352.992 247.847,352.461 250.803,352.014 252.775 C 351.568 254.748,351.099 257.284,350.972 258.412 C 350.846 259.539,350.460 261.768,350.114 263.365 C 348.938 268.793,348.113 273.093,347.722 275.833 C 347.508 277.336,347.120 279.388,346.861 280.394 C 346.277 282.658,346.580 283.352,349.120 285.568 C 351.405 287.562,352.383 288.547,354.084 290.571 C 355.550 292.314,359.905 298.825,360.281 299.836 C 360.402 300.161,360.772 300.811,361.103 301.281 C 361.435 301.751,361.959 303.134,362.268 304.355 C 362.577 305.576,363.047 307.096,363.312 307.732 C 364.237 309.945,364.843 317.004,364.287 319.090 C 363.520 321.972,363.647 323.465,364.816 325.308 C 365.380 326.197,365.841 327.049,365.841 327.202 C 365.841 327.355,366.299 328.157,366.858 328.984 C 367.893 330.514,369.580 334.648,370.990 339.112 L 371.773 341.588 385.886 341.588 L 400.000 341.588 400.000 263.877 C 400.000 192.292,399.916 184.284,399.187 186.763 M147.508 301.189 C 145.076 301.383,144.956 301.732,145.975 305.630 C 146.455 307.465,147.091 309.966,147.390 311.187 C 147.688 312.408,148.162 314.176,148.442 315.115 C 148.723 316.055,149.084 317.515,149.244 318.360 C 149.405 319.206,150.001 321.588,150.569 323.655 C 151.137 325.722,151.776 328.104,151.989 328.950 C 153.102 333.355,153.803 335.893,154.654 338.591 L 155.594 341.572 165.714 341.580 L 175.835 341.588 176.193 340.307 C 176.390 339.603,176.804 338.181,177.113 337.148 C 178.372 332.941,179.411 328.989,179.853 326.729 C 180.110 325.414,180.627 323.485,181.002 322.442 C 181.377 321.398,181.791 319.707,181.922 318.684 C 182.052 317.661,182.369 316.408,182.625 315.901 C 182.882 315.394,183.259 314.164,183.465 313.168 C 183.670 312.172,184.372 309.442,185.023 307.100 C 186.550 301.612,186.499 301.467,182.900 301.163 C 180.210 300.936,150.421 300.958,147.508 301.189 " stroke="none" fill="#f3f3f3" fill-rule="evenodd"></path><path id="path3" d="M154.825 105.805 C 156.657 105.867,159.654 105.867,161.486 105.805 C 163.318 105.744,161.819 105.694,158.155 105.694 C 154.492 105.694,152.993 105.744,154.825 105.805 M174.893 105.879 C 179.142 106.379,183.425 106.547,181.896 106.154 C 181.144 105.961,178.762 105.762,176.601 105.711 C 173.411 105.636,173.090 105.667,174.893 105.879 M57.962 106.387 C 57.245 106.643,56.400 107.086,56.083 107.372 C 55.767 107.658,54.457 108.236,53.172 108.658 C 49.575 109.838,49.691 109.425,49.754 120.740 C 49.802 129.360,50.150 134.713,51.323 144.833 C 51.355 145.115,51.258 146.205,51.107 147.255 C 50.846 149.064,52.138 152.910,53.276 153.715 C 53.409 153.809,54.119 154.934,54.854 156.216 C 55.590 157.498,56.345 158.813,56.533 159.138 C 56.833 159.657,57.924 161.388,60.649 165.670 C 61.068 166.328,61.465 167.024,61.533 167.216 C 62.146 168.956,65.527 173.843,66.207 173.973 C 67.383 174.198,67.539 173.493,67.968 166.012 C 68.179 162.348,68.496 158.352,68.673 157.131 C 68.851 155.909,69.309 152.605,69.691 149.787 C 70.509 143.757,71.302 138.781,71.788 136.635 C 72.510 133.448,74.169 125.431,74.650 122.801 C 75.258 119.479,76.780 117.684,78.790 117.919 C 79.666 118.021,79.821 117.956,79.532 117.607 C 79.330 117.364,78.878 117.165,78.527 117.165 C 78.176 117.165,77.081 116.857,76.092 116.482 C 75.104 116.106,74.100 115.799,73.860 115.799 C 72.610 115.798,66.944 110.622,65.908 108.534 C 65.331 107.370,64.676 106.302,64.453 106.161 C 63.783 105.735,59.359 105.889,57.962 106.387 M266.128 107.441 C 265.695 108.362,265.064 109.117,264.571 109.304 C 263.640 109.658,261.872 111.400,261.076 112.748 C 260.787 113.237,260.031 113.917,259.396 114.259 C 258.760 114.601,258.241 114.987,258.241 115.115 C 258.241 115.312,256.613 115.997,252.946 117.343 C 252.360 117.558,252.433 117.639,253.459 117.915 C 254.940 118.314,255.751 119.316,256.029 121.093 C 256.146 121.845,256.676 124.304,257.206 126.558 C 258.299 131.209,260.064 139.989,260.914 145.004 C 261.977 151.280,262.511 156.078,263.187 165.431 C 263.469 169.338,263.861 172.836,264.057 173.202 C 264.606 174.229,265.660 174.021,266.307 172.758 C 266.620 172.148,266.978 171.571,267.104 171.477 C 267.229 171.383,267.914 170.231,268.625 168.915 C 269.337 167.600,270.194 166.217,270.530 165.841 C 270.866 165.465,271.794 163.928,272.592 162.425 C 273.391 160.922,274.992 158.232,276.151 156.447 C 280.243 150.147,280.833 148.516,280.054 145.655 C 280.007 145.485,280.152 143.809,280.375 141.930 C 281.718 130.629,282.254 113.890,281.331 112.104 C 280.847 111.170,280.121 110.644,275.692 108.029 C 274.259 107.182,269.609 105.906,267.928 105.898 C 266.989 105.893,266.765 106.085,266.128 107.441 M186.336 107.298 C 187.997 107.821,195.419 109.311,196.204 109.279 C 196.828 109.254,196.807 109.214,196.052 108.984 C 195.571 108.839,194.877 108.558,194.510 108.362 C 193.919 108.045,186.581 106.871,185.667 106.947 C 185.472 106.963,185.773 107.121,186.336 107.298 M137.660 108.284 L 136.806 108.557 137.660 108.557 C 138.130 108.557,138.898 108.434,139.368 108.284 L 140.222 108.010 139.368 108.010 C 138.898 108.010,138.130 108.133,137.660 108.284 M108.625 117.165 C 107.946 117.604,108.799 117.604,109.821 117.165 L 110.504 116.871 109.821 116.852 C 109.445 116.842,108.907 116.983,108.625 117.165 M82.152 118.689 C 83.592 119.232,86.547 119.429,85.226 118.894 C 84.851 118.742,83.698 118.518,82.664 118.396 L 80.786 118.174 82.152 118.689 M103.330 118.531 C 102.748 118.781,102.798 118.825,103.672 118.825 C 104.236 118.825,105.004 118.693,105.380 118.531 C 105.962 118.281,105.912 118.238,105.038 118.238 C 104.475 118.238,103.706 118.370,103.330 118.531 M246.798 118.873 C 246.172 119.142,246.186 119.168,246.968 119.185 C 247.438 119.195,248.053 119.055,248.335 118.873 C 249.007 118.438,247.809 118.438,246.798 118.873 M89.752 119.797 C 90.175 119.878,90.867 119.878,91.289 119.797 C 91.712 119.716,91.366 119.649,90.521 119.649 C 89.675 119.649,89.330 119.716,89.752 119.797 M94.197 119.798 C 94.622 119.879,95.237 119.876,95.563 119.791 C 95.890 119.705,95.542 119.638,94.791 119.642 C 94.039 119.646,93.772 119.716,94.197 119.798 M234.761 119.801 C 235.281 119.880,236.049 119.877,236.469 119.796 C 236.889 119.715,236.465 119.651,235.525 119.654 C 234.586 119.656,234.242 119.723,234.761 119.801 M110.333 120.929 C 105.588 121.555,102.586 122.379,100.085 123.740 C 98.676 124.507,96.985 125.416,96.328 125.761 C 90.784 128.666,87.928 133.632,90.044 136.686 C 92.035 139.559,92.856 139.586,99.852 137.013 C 109.131 133.600,121.023 133.961,129.754 137.921 C 134.387 140.022,137.672 138.535,137.653 134.347 C 137.645 132.659,136.595 129.804,135.982 129.804 C 135.792 129.804,134.697 128.966,133.550 127.942 C 127.658 122.685,118.345 119.872,110.333 120.929 M212.126 121.037 C 210.717 121.275,208.565 121.891,207.344 122.407 C 206.123 122.923,204.355 123.648,203.416 124.017 C 199.000 125.754,194.517 130.145,193.210 134.013 C 193.094 134.355,193.329 135.400,193.731 136.335 C 195.031 139.357,197.294 139.734,202.050 137.720 C 203.365 137.164,205.363 136.513,206.490 136.274 C 207.617 136.035,208.697 135.721,208.889 135.577 C 209.081 135.433,210.876 135.124,212.879 134.892 C 219.762 134.091,225.769 134.969,233.988 137.975 C 241.450 140.705,244.430 134.337,238.458 128.423 C 237.041 127.021,232.685 124.012,232.032 123.986 C 231.887 123.980,230.849 123.519,229.727 122.961 C 228.452 122.328,227.154 121.947,226.269 121.947 C 225.489 121.947,224.182 121.711,223.363 121.422 C 221.346 120.710,215.294 120.503,212.126 121.037 M111.622 141.384 C 100.708 143.658,96.408 158.954,104.196 167.802 C 107.946 172.063,113.650 173.865,119.004 172.480 C 122.146 171.668,122.901 171.294,125.192 169.417 C 138.357 158.632,128.323 137.904,111.622 141.384 M210.400 141.420 C 207.513 141.909,204.121 143.918,202.517 146.090 C 201.727 147.160,200.859 148.293,200.588 148.610 C 199.317 150.094,198.645 153.100,198.644 157.301 L 198.642 161.401 199.995 163.962 C 206.711 176.685,223.413 175.661,228.801 162.197 C 231.454 155.566,226.968 144.579,220.666 142.275 C 217.308 141.046,214.154 140.784,210.400 141.420 M132.950 211.805 C 127.921 214.370,131.273 221.997,139.197 226.022 C 140.137 226.500,141.213 227.155,141.588 227.478 C 143.208 228.871,150.667 232.220,153.886 232.999 C 154.637 233.181,156.174 233.660,157.301 234.063 C 160.416 235.178,170.897 235.190,174.381 234.081 C 175.696 233.663,177.648 233.084,178.719 232.796 C 179.789 232.507,180.759 232.119,180.874 231.934 C 180.988 231.749,181.365 231.597,181.710 231.597 C 182.528 231.597,189.419 228.378,189.751 227.841 C 189.892 227.614,190.753 227.082,191.666 226.659 C 193.849 225.648,198.962 221.495,200.659 219.355 C 203.185 216.170,200.308 210.854,196.243 211.193 C 194.556 211.334,194.126 211.463,190.094 213.030 C 188.068 213.817,187.248 214.045,182.579 215.120 C 179.040 215.935,152.558 215.938,149.274 215.124 C 145.203 214.115,142.291 213.200,140.222 212.280 C 137.364 211.010,134.834 210.844,132.950 211.805 M319.262 267.634 C 318.923 268.518,319.000 268.830,319.556 268.830 C 320.120 268.830,320.218 268.228,319.769 267.520 C 319.539 267.157,319.436 267.180,319.262 267.634 M138.367 277.809 C 138.354 277.957,138.637 279.340,138.995 280.883 C 139.354 282.427,139.911 284.919,140.233 286.422 C 140.852 289.309,142.003 292.107,141.568 289.667 C 141.451 289.009,141.139 287.813,140.874 287.008 C 140.609 286.203,140.391 285.127,140.389 284.617 C 140.383 283.292,138.457 276.806,138.367 277.809 M192.314 279.204 C 192.314 279.461,192.002 280.649,191.621 281.843 C 191.239 283.036,190.991 284.248,191.069 284.534 C 191.176 284.930,191.220 284.908,191.250 284.446 C 191.272 284.110,191.511 283.495,191.781 283.079 C 192.293 282.292,192.905 278.736,192.529 278.736 C 192.411 278.736,192.314 278.947,192.314 279.204 M105.380 280.786 C 105.253 280.992,105.711 281.127,106.535 281.127 C 107.287 281.127,107.997 280.974,108.113 280.786 C 108.240 280.580,107.781 280.444,106.957 280.444 C 106.206 280.444,105.496 280.598,105.380 280.786 M85.056 286.934 C 85.726 287.368,87.008 287.368,87.276 286.934 C 87.404 286.726,86.910 286.595,86.015 286.598 C 84.939 286.602,84.681 286.692,85.056 286.934 M226.538 287.440 C 226.211 288.159,226.251 288.340,226.803 288.636 C 228.240 289.405,229.027 288.810,228.489 287.361 C 228.109 286.339,227.020 286.383,226.538 287.440 M71.648 290.969 C 70.564 291.058,70.367 291.197,70.367 291.871 C 70.367 292.907,71.194 293.203,72.378 292.591 C 74.634 291.424,74.329 290.747,71.648 290.969 M250.301 294.962 C 250.390 295.431,250.677 295.816,250.936 295.816 C 251.589 295.816,251.533 294.570,250.869 294.315 C 250.111 294.024,250.120 294.014,250.301 294.962 M268.147 297.155 C 268.147 297.554,270.062 297.988,270.535 297.696 C 270.731 297.575,270.802 297.333,270.694 297.158 C 270.439 296.746,268.147 296.743,268.147 297.155 M259.386 298.043 C 259.125 298.723,259.379 298.975,260.183 298.832 C 260.794 298.723,260.795 298.696,260.205 298.114 C 259.662 297.577,259.568 297.569,259.386 298.043 M272.246 298.890 C 272.914 299.322,273.612 299.322,273.612 298.890 C 273.612 298.702,273.190 298.551,272.673 298.553 C 271.941 298.558,271.847 298.632,272.246 298.890 M54.541 299.851 C 53.976 300.475,54.303 301.281,55.123 301.281 C 55.729 301.281,56.660 300.199,56.473 299.712 C 56.216 299.040,55.209 299.113,54.541 299.851 M274.295 300.068 C 274.295 300.508,276.261 302.306,276.742 302.306 C 276.922 302.306,276.983 302.443,276.880 302.612 C 276.776 302.780,276.888 302.993,277.130 303.086 C 277.403 303.191,277.594 302.946,277.636 302.438 C 277.673 301.990,277.548 301.623,277.357 301.623 C 277.167 301.623,276.872 301.257,276.703 300.811 C 276.379 299.959,274.295 299.316,274.295 300.068 M281.156 305.692 C 276.251 310.598,276.424 320.496,281.487 324.564 C 283.196 325.938,283.243 328.076,281.586 329.054 C 278.788 330.706,279.030 341.588,281.864 341.588 C 283.392 341.588,283.450 341.352,282.445 339.197 C 281.247 336.630,281.464 333.998,283.151 330.627 C 285.021 326.891,285.009 325.792,283.073 323.607 C 278.255 318.165,278.009 311.768,282.475 308.010 C 283.652 307.020,283.801 306.182,282.921 305.514 C 282.120 304.906,281.922 304.926,281.156 305.692 M274.218 306.544 C 273.978 307.798,274.300 309.337,274.678 308.742 C 274.837 308.490,274.968 307.899,274.968 307.430 C 274.968 306.108,274.424 305.465,274.218 306.544 M46.376 310.397 C 45.981 310.500,45.831 310.799,45.924 311.296 C 46.001 311.706,46.075 312.156,46.089 312.297 C 46.154 312.952,47.789 312.485,48.332 311.656 C 49.146 310.414,48.327 309.886,46.376 310.397 M32.128 319.533 C 31.592 320.179,31.797 321.605,32.426 321.605 C 33.101 321.605,33.534 319.859,32.975 319.395 C 32.664 319.137,32.425 319.175,32.128 319.533 M361.102 330.401 C 360.479 332.327,359.446 334.995,358.806 336.330 C 358.167 337.664,357.643 338.870,357.643 339.008 C 357.643 339.147,357.336 339.651,356.960 340.129 C 356.009 341.337,356.097 341.588,357.472 341.588 C 358.426 341.588,358.668 341.455,358.668 340.928 C 358.668 340.565,358.975 340.170,359.351 340.051 C 359.727 339.932,360.034 339.687,360.034 339.507 C 360.034 339.327,360.488 339.414,361.042 339.701 C 361.596 339.988,362.365 340.222,362.750 340.222 C 363.559 340.222,363.698 339.366,362.937 339.074 C 361.675 338.589,361.267 336.695,362.045 334.935 C 362.442 334.038,362.768 333.054,362.769 332.749 C 362.770 332.444,363.001 331.754,363.281 331.216 C 364.207 329.441,363.807 326.900,362.603 326.900 C 362.400 326.900,361.724 328.476,361.102 330.401 M25.972 332.441 C 25.736 333.327,25.330 334.230,25.069 334.447 C 24.557 334.872,24.381 338.514,24.873 338.514 C 25.717 338.514,27.078 333.646,26.688 332.024 L 26.401 330.828 25.972 332.441 M365.731 334.211 C 365.302 335.326,365.910 338.186,366.659 338.580 C 367.055 338.788,367.504 339.127,367.657 339.334 C 368.099 339.931,367.678 337.470,367.049 335.781 C 366.362 333.938,366.001 333.507,365.731 334.211 " stroke="none" fill="#513b33" fill-rule="evenodd"></path><path id="path4" d="M101.465 3.145 C 100.108 3.376,97.442 5.204,92.058 9.591 C 88.915 12.153,84.575 16.559,80.968 20.852 C 79.001 23.192,77.301 25.184,77.189 25.278 C 76.964 25.467,74.392 29.283,72.010 32.963 C 68.572 38.272,62.852 49.051,62.852 50.220 C 62.852 50.447,62.555 51.192,62.191 51.875 C 59.952 56.081,55.671 68.440,54.129 75.149 C 53.675 77.122,53.061 79.735,52.765 80.956 C 51.281 87.063,50.262 92.336,48.803 101.452 C 47.897 107.111,47.506 124.157,48.140 130.316 C 49.651 144.991,49.717 147.638,48.639 150.255 C 47.961 151.900,48.034 151.923,49.217 150.434 C 49.797 149.705,50.396 149.030,50.550 148.935 C 50.854 148.747,51.441 145.665,51.331 144.833 C 49.710 132.520,49.037 111.110,50.047 104.014 C 50.341 101.947,50.725 99.117,50.899 97.725 C 51.074 96.333,51.449 93.951,51.733 92.431 C 52.017 90.911,52.552 87.899,52.923 85.739 C 53.293 83.578,54.046 80.273,54.596 78.395 C 55.146 76.516,55.694 74.441,55.814 73.783 C 56.103 72.199,57.249 68.340,58.249 65.585 C 58.692 64.364,59.384 62.212,59.786 60.803 C 60.189 59.394,60.719 57.780,60.964 57.216 C 61.210 56.652,61.836 55.192,62.357 53.971 C 62.877 52.750,63.740 50.800,64.273 49.637 C 64.807 48.475,65.243 47.423,65.243 47.299 C 65.243 47.175,65.530 46.666,65.880 46.167 C 66.230 45.668,67.400 43.570,68.479 41.503 C 69.558 39.436,71.539 36.055,72.881 33.988 C 74.222 31.921,75.474 29.980,75.662 29.674 C 77.703 26.349,82.704 20.414,87.282 15.884 C 93.957 9.279,96.181 7.445,101.440 4.204 L 102.966 3.264 112.371 3.426 C 124.052 3.626,205.812 3.639,218.689 3.442 L 228.155 3.298 230.474 4.880 C 237.517 9.685,246.254 17.729,250.384 23.210 C 251.418 24.582,252.893 26.492,253.663 27.455 C 254.433 28.418,255.308 29.681,255.608 30.262 C 255.908 30.843,256.906 32.457,257.827 33.849 C 259.858 36.920,262.598 41.419,262.948 42.257 C 263.089 42.594,263.731 43.868,264.374 45.090 C 265.018 46.311,266.036 48.463,266.636 49.872 C 267.236 51.281,268.221 53.587,268.825 54.996 C 270.000 57.735,272.558 64.777,273.601 68.147 C 273.950 69.274,274.473 70.811,274.763 71.563 C 275.053 72.314,275.297 73.357,275.305 73.879 C 275.313 74.402,275.543 75.363,275.815 76.015 C 276.868 78.534,279.088 89.584,280.754 100.598 C 282.248 110.474,282.048 130.122,280.328 142.442 C 279.780 146.365,280.019 147.737,281.608 149.798 C 282.530 150.993,282.842 151.242,282.664 150.640 C 282.524 150.171,282.237 149.570,282.025 149.305 C 281.506 148.657,281.607 139.943,282.153 138.161 C 283.097 135.082,283.096 103.255,282.152 101.281 C 281.972 100.905,281.582 98.686,281.286 96.349 C 280.989 94.012,280.666 91.970,280.568 91.812 C 280.470 91.654,280.175 90.184,279.912 88.546 C 279.152 83.810,278.462 80.750,277.198 76.516 C 276.890 75.482,276.290 73.330,275.865 71.734 C 275.440 70.137,274.922 68.523,274.714 68.147 C 274.210 67.239,272.996 63.485,272.450 61.144 C 272.209 60.111,271.664 58.420,271.238 57.387 C 270.813 56.354,270.153 54.740,269.773 53.800 C 269.393 52.861,268.103 50.059,266.907 47.575 C 265.710 45.090,264.731 43.002,264.731 42.933 C 264.731 42.547,260.130 34.638,258.717 32.597 C 254.687 26.773,254.036 25.850,253.580 25.323 C 253.314 25.016,252.195 23.612,251.093 22.203 C 248.703 19.150,241.135 11.343,239.477 10.222 C 238.832 9.786,237.525 8.709,236.573 7.829 C 233.879 5.339,232.909 4.593,231.294 3.773 L 229.795 3.012 166.336 2.958 C 131.434 2.928,102.242 3.012,101.465 3.145 M72.176 103.999 C 72.819 105.007,74.849 105.879,74.398 104.953 C 73.434 102.973,73.287 102.818,72.378 102.818 L 71.423 102.818 72.176 103.999 M119.727 104.184 C 118.995 104.499,118.973 104.491,120.979 104.663 C 121.198 104.681,121.442 104.505,121.520 104.270 C 121.682 103.785,120.758 103.741,119.727 104.184 M209.564 104.526 C 209.436 104.734,209.930 104.866,210.825 104.862 C 211.901 104.859,212.159 104.768,211.785 104.526 C 211.114 104.093,209.832 104.093,209.564 104.526 M156.960 105.895 C 148.781 106.175,147.681 106.306,141.759 107.700 C 139.787 108.164,136.943 108.733,135.440 108.965 C 133.937 109.196,131.170 109.916,129.291 110.566 C 127.412 111.216,124.722 112.102,123.313 112.536 C 121.904 112.970,118.446 114.130,115.628 115.113 C 112.810 116.097,109.741 117.114,108.808 117.374 C 107.876 117.634,106.492 118.071,105.734 118.344 C 100.744 120.143,87.175 120.151,80.710 118.358 C 78.695 117.799,76.857 117.862,76.857 118.491 C 76.857 118.649,77.664 118.874,78.651 118.991 C 79.637 119.108,81.319 119.432,82.389 119.712 C 87.277 120.990,99.141 121.278,102.989 120.213 C 103.740 120.005,105.124 119.656,106.063 119.438 C 107.003 119.220,108.002 118.888,108.284 118.701 C 108.565 118.514,109.949 118.033,111.358 117.632 C 114.892 116.627,121.837 114.173,122.740 113.611 C 123.149 113.356,124.183 113.060,125.037 112.952 C 125.890 112.844,127.019 112.533,127.544 112.261 C 128.070 111.988,130.061 111.359,131.970 110.863 C 133.878 110.368,135.901 109.824,136.465 109.656 C 137.028 109.487,138.104 109.249,138.856 109.127 C 139.607 109.005,141.759 108.602,143.638 108.233 C 151.416 106.703,153.095 106.576,165.518 106.576 C 177.395 106.576,177.632 106.589,183.652 107.624 C 187.007 108.200,190.620 108.801,191.681 108.959 C 192.742 109.117,193.895 109.394,194.243 109.574 C 194.591 109.755,196.106 110.171,197.609 110.499 C 199.112 110.827,201.341 111.467,202.562 111.921 C 203.783 112.375,205.594 112.888,206.587 113.061 C 207.579 113.234,208.791 113.690,209.280 114.074 C 209.769 114.459,210.417 114.775,210.721 114.776 C 211.271 114.779,214.483 115.853,219.983 117.874 C 229.054 121.208,240.347 121.747,250.897 119.349 C 252.212 119.050,253.746 118.826,254.307 118.851 C 254.953 118.879,255.203 118.778,254.990 118.574 C 254.420 118.029,252.299 117.594,251.579 117.875 C 248.291 119.160,239.353 120.158,234.654 119.766 C 228.836 119.281,225.737 118.513,215.542 115.026 C 212.254 113.901,208.329 112.640,206.819 112.224 C 205.309 111.807,202.672 110.981,200.957 110.387 C 199.243 109.794,197.306 109.308,196.652 109.308 C 195.313 109.308,190.019 108.283,186.166 107.278 C 181.118 105.960,170.180 105.442,156.960 105.895 M318.784 135.648 C 312.722 138.649,302.648 153.790,300.400 163.279 C 300.155 164.313,299.724 166.003,299.443 167.037 C 298.064 172.092,298.072 186.894,299.454 190.141 C 299.763 190.866,300.214 192.306,300.456 193.339 C 302.132 200.487,307.220 209.837,311.921 214.406 C 322.121 224.318,323.225 229.653,319.044 248.847 C 318.676 250.538,318.056 253.833,317.666 256.169 C 317.275 258.505,316.895 260.516,316.820 260.637 C 316.745 260.758,316.521 261.881,316.321 263.133 C 315.882 265.878,315.428 266.955,314.540 267.350 C 314.023 267.581,314.422 267.750,316.313 268.100 C 319.347 268.661,319.178 268.892,319.235 264.119 C 319.275 260.774,319.396 259.924,319.977 258.924 C 320.465 258.085,320.737 256.818,320.889 254.681 C 321.008 253.005,321.282 251.422,321.497 251.163 C 321.712 250.904,322.007 249.151,322.153 247.267 C 322.299 245.384,322.558 243.662,322.728 243.441 C 323.087 242.975,323.619 240.905,324.204 237.706 C 325.167 232.429,322.874 221.610,320.428 219.898 C 320.064 219.643,319.238 218.674,318.593 217.744 C 317.021 215.482,312.034 210.418,311.378 210.418 C 311.090 210.418,310.640 209.904,310.377 209.275 C 310.114 208.647,309.356 207.360,308.693 206.415 C 308.029 205.471,307.335 204.151,307.150 203.483 C 306.966 202.815,306.261 201.434,305.585 200.416 C 304.909 199.397,304.354 198.271,304.352 197.915 C 304.341 195.866,302.990 190.750,302.316 190.204 C 299.867 188.221,300.818 165.696,303.531 161.401 C 303.769 161.025,304.068 160.141,304.197 159.436 C 304.326 158.732,304.568 158.155,304.735 158.155 C 304.902 158.155,305.038 157.993,305.038 157.793 C 305.038 157.283,307.674 151.819,308.194 151.252 C 308.694 150.707,309.243 149.860,310.031 148.420 C 310.339 147.857,311.225 146.765,311.999 145.994 C 313.855 144.147,316.311 141.462,316.311 141.280 C 316.311 141.200,317.069 140.335,317.997 139.358 C 320.221 137.014,322.061 136.667,323.839 138.255 L 324.974 139.270 324.570 142.971 C 324.338 145.097,323.989 146.782,323.751 146.929 C 323.479 147.097,323.223 148.995,323.009 152.415 C 322.780 156.079,322.545 157.745,322.224 157.985 C 321.929 158.204,321.648 159.655,321.439 162.031 C 321.260 164.068,320.927 166.253,320.698 166.886 C 320.386 167.747,320.378 168.234,320.663 168.818 C 320.874 169.247,321.223 170.179,321.440 170.888 C 321.818 172.121,325.756 176.601,326.462 176.601 C 326.633 176.601,327.290 177.291,327.922 178.135 C 328.554 178.978,329.351 179.757,329.693 179.866 C 330.036 179.974,330.316 180.226,330.316 180.424 C 330.316 180.623,330.972 181.362,331.773 182.068 C 332.575 182.773,333.459 183.790,333.737 184.328 C 334.330 185.471,335.990 187.190,336.501 187.190 C 336.936 187.190,337.831 188.054,337.831 188.473 C 337.831 188.641,338.215 189.140,338.685 189.582 C 339.155 190.023,339.539 190.572,339.539 190.801 C 339.539 191.197,340.748 192.339,342.768 193.851 C 343.270 194.227,343.936 194.804,344.248 195.132 C 344.924 195.846,346.209 195.899,347.427 195.264 C 347.914 195.010,348.913 194.690,349.647 194.554 C 350.382 194.418,351.477 194.002,352.081 193.631 C 352.686 193.259,354.132 192.582,355.295 192.127 C 356.457 191.671,357.654 191.080,357.953 190.813 C 358.252 190.547,359.150 190.154,359.949 189.942 C 360.747 189.729,361.401 189.425,361.401 189.267 C 361.401 189.108,361.719 188.895,362.109 188.793 C 362.499 188.691,362.896 188.306,362.993 187.938 C 363.117 187.462,363.579 187.203,364.590 187.041 C 365.372 186.916,366.347 186.595,366.756 186.327 C 367.166 186.059,368.165 185.744,368.977 185.627 C 369.788 185.510,370.852 185.135,371.339 184.794 C 371.827 184.453,372.976 184.061,373.892 183.924 C 375.669 183.658,376.186 183.244,378.605 180.163 C 380.450 177.812,380.798 176.469,381.913 167.378 C 383.602 153.610,383.889 152.292,385.541 150.734 C 387.810 148.594,389.972 149.512,391.469 153.251 C 391.910 154.351,392.487 155.383,392.751 155.543 C 393.016 155.703,393.450 156.356,393.717 156.995 C 393.984 157.633,394.336 158.155,394.499 158.155 C 394.663 158.155,394.907 159.185,395.042 160.443 C 395.176 161.700,395.593 163.891,395.967 165.310 C 396.548 167.515,396.655 169.108,396.701 176.260 C 396.760 185.477,396.668 186.204,395.363 186.798 C 394.675 187.112,394.535 187.343,394.757 187.796 C 395.160 188.616,395.080 194.023,394.661 194.304 C 394.089 194.689,392.143 197.700,392.143 198.201 C 392.143 198.739,390.534 202.137,389.916 202.904 C 389.688 203.185,389.401 203.844,389.276 204.367 C 389.015 205.468,386.756 208.791,384.858 210.867 C 384.139 211.653,383.345 212.687,383.094 213.163 C 382.843 213.640,382.201 214.247,381.669 214.514 C 380.738 214.979,380.273 215.336,378.542 216.916 C 376.621 218.669,373.642 219.655,374.369 218.297 C 374.619 217.829,374.536 217.529,374.028 217.069 C 373.088 216.219,373.175 215.996,374.637 215.515 C 375.843 215.117,377.379 214.191,378.402 213.244 C 378.651 213.013,379.044 212.706,379.274 212.561 C 379.823 212.215,382.579 208.701,382.579 208.347 C 382.579 208.197,382.877 207.979,383.242 207.863 C 384.426 207.487,388.386 201.162,388.386 199.645 C 388.386 199.346,388.732 198.611,389.155 198.013 C 391.682 194.443,392.261 192.694,392.838 186.891 C 393.032 184.942,393.328 183.090,393.496 182.775 C 394.382 181.120,395.123 172.336,394.446 171.525 C 393.914 170.888,393.303 168.431,392.991 165.670 C 392.874 164.637,392.481 162.907,392.119 161.826 C 391.757 160.745,391.460 159.175,391.460 158.337 C 391.460 156.553,390.797 156.013,388.607 156.013 C 386.908 156.013,386.336 156.719,386.336 158.820 C 386.336 159.677,386.029 161.453,385.653 162.768 C 385.269 164.109,384.825 167.180,384.640 169.769 C 384.348 173.859,384.194 174.613,383.277 176.430 C 382.708 177.558,382.081 179.095,381.883 179.846 C 381.172 182.543,380.847 183.047,379.555 183.463 C 377.965 183.974,377.455 184.387,377.455 185.163 C 377.455 185.974,377.157 186.132,375.178 186.368 C 372.968 186.631,367.906 188.798,366.965 189.883 C 366.350 190.592,365.955 190.735,364.831 190.654 C 363.592 190.564,363.214 190.751,361.145 192.472 C 357.970 195.112,355.023 196.475,352.820 196.321 C 351.728 196.245,350.998 196.359,350.763 196.643 C 348.484 199.389,340.623 197.370,339.729 193.809 C 339.585 193.232,339.208 192.914,338.502 192.773 C 337.810 192.635,337.106 192.054,336.301 190.958 C 335.651 190.072,334.499 188.918,333.742 188.393 C 332.985 187.868,332.365 187.312,332.365 187.157 C 332.365 187.002,331.751 186.710,330.999 186.507 C 330.248 186.305,329.633 185.969,329.633 185.761 C 329.633 185.552,329.095 184.726,328.437 183.923 C 327.504 182.785,327.242 182.158,327.242 181.070 C 327.242 179.810,327.159 179.675,326.388 179.675 C 325.918 179.675,325.534 179.542,325.534 179.378 C 325.534 179.214,324.239 177.777,322.657 176.185 C 320.490 174.003,319.687 172.939,319.399 171.871 C 319.189 171.091,318.862 170.453,318.671 170.453 C 317.786 170.453,317.282 168.072,317.962 167.106 C 318.955 165.696,319.050 165.006,318.583 162.584 C 318.204 160.612,318.224 160.152,318.755 158.655 C 319.086 157.723,319.363 156.645,319.371 156.260 C 319.379 155.874,319.555 155.389,319.763 155.182 C 319.970 154.974,320.274 153.752,320.438 152.466 C 320.601 151.180,320.832 149.426,320.951 148.569 C 321.285 146.167,320.101 143.743,318.789 144.140 C 316.650 144.786,314.762 146.099,313.998 147.470 C 313.572 148.237,312.611 149.494,311.864 150.265 C 311.079 151.073,310.504 151.998,310.504 152.451 C 310.504 152.883,310.378 153.383,310.224 153.561 C 310.070 153.740,309.518 154.962,308.998 156.277 C 308.004 158.792,307.777 159.296,306.773 161.230 C 305.738 163.222,304.943 167.019,305.163 168.914 C 305.278 169.897,305.163 171.494,304.894 172.673 C 303.670 178.022,303.607 179.275,304.365 183.262 C 304.758 185.329,305.109 188.254,305.144 189.762 C 305.203 192.261,305.322 192.693,306.485 194.646 C 307.272 195.966,307.883 197.535,308.079 198.735 C 308.484 201.216,309.003 202.561,309.556 202.565 C 310.093 202.568,312.336 205.072,313.149 206.576 C 314.297 208.699,317.727 212.747,318.731 213.163 C 320.464 213.881,322.896 217.163,323.807 220.011 C 324.252 221.405,325.036 223.467,325.549 224.594 C 327.860 229.677,327.309 241.345,324.362 249.718 C 324.127 250.384,323.901 252.152,323.859 253.646 C 323.721 258.585,322.362 262.340,320.712 262.340 C 319.548 262.340,319.715 263.007,321.097 263.879 C 323.263 265.247,323.006 267.122,320.653 267.122 C 319.801 267.122,319.710 267.218,319.921 267.891 C 320.207 268.810,320.676 269.159,321.631 269.166 C 322.513 269.173,326.449 270.538,328.950 271.704 C 329.983 272.186,331.070 272.582,331.366 272.584 C 331.662 272.586,332.815 273.296,333.928 274.161 C 335.041 275.027,336.590 276.036,337.369 276.403 C 338.149 276.770,339.686 277.875,340.785 278.858 C 343.414 281.208,347.221 283.785,346.742 282.891 C 346.489 282.418,346.523 281.706,346.860 280.397 C 347.120 279.390,347.508 277.336,347.722 275.833 C 348.113 273.093,348.938 268.793,350.114 263.365 C 350.460 261.768,350.846 259.539,350.972 258.412 C 351.099 257.284,351.568 254.748,352.014 252.775 C 352.461 250.803,352.992 247.847,353.194 246.208 C 353.396 244.568,353.844 242.416,354.189 241.425 C 354.535 240.435,354.970 239.147,355.157 238.564 C 356.116 235.568,361.526 229.724,364.754 228.196 C 366.010 227.602,367.267 226.995,367.549 226.847 C 373.529 223.696,375.439 222.565,378.309 220.475 C 383.511 216.685,389.494 210.205,391.535 206.149 C 391.914 205.397,392.420 204.552,392.661 204.270 C 394.251 202.410,398.275 192.038,398.822 188.391 C 398.952 187.524,399.270 186.603,399.529 186.344 C 400.074 185.799,400.239 166.843,399.701 166.638 C 399.357 166.508,397.609 160.942,397.609 159.979 C 397.609 159.627,397.225 158.773,396.755 158.082 C 396.285 157.391,395.901 156.548,395.901 156.209 C 395.901 154.861,392.720 149.247,391.334 148.149 C 387.181 144.860,382.305 148.158,381.551 154.764 C 381.382 156.246,381.104 157.730,380.932 158.063 C 380.760 158.396,380.517 159.283,380.392 160.034 C 380.267 160.786,379.612 164.321,378.936 167.891 C 378.260 171.460,377.562 175.193,377.384 176.185 C 376.945 178.633,376.190 179.261,370.282 182.093 C 367.558 183.399,363.792 185.222,361.913 186.146 C 349.250 192.369,347.540 193.014,345.850 192.208 C 344.549 191.588,341.165 188.505,337.529 184.629 C 336.295 183.313,334.068 181.008,332.579 179.505 C 323.021 169.856,322.418 168.728,323.630 162.767 C 326.132 150.461,327.091 145.019,327.461 141.029 C 327.910 136.190,323.373 133.377,318.784 135.648 M284.093 154.910 C 284.292 156.304,285.062 158.497,285.352 158.497 C 285.441 158.497,285.308 157.921,285.057 157.216 C 284.807 156.512,284.444 155.397,284.250 154.740 L 283.899 153.544 284.093 154.910 M285.710 165.158 C 285.711 168.728,285.761 170.141,285.823 168.300 C 285.884 166.458,285.884 163.538,285.822 161.810 C 285.760 160.082,285.710 161.588,285.710 165.158 M45.517 160.376 C 45.521 161.127,45.591 161.394,45.673 160.970 C 45.755 160.545,45.751 159.930,45.666 159.603 C 45.580 159.277,45.514 159.624,45.517 160.376 M45.199 165.329 C 45.199 166.550,45.261 167.050,45.337 166.439 C 45.413 165.828,45.413 164.829,45.337 164.219 C 45.261 163.608,45.199 164.108,45.199 165.329 M45.482 171.477 C 45.470 171.759,45.669 172.912,45.924 174.039 C 46.296 175.689,46.388 175.855,46.395 174.893 C 46.403 173.735,45.524 170.445,45.482 171.477 M284.936 173.800 C 284.375 176.384,284.504 177.170,285.091 174.743 C 285.361 173.627,285.525 172.551,285.456 172.352 C 285.386 172.153,285.153 172.804,284.936 173.800 M48.164 181.490 C 48.164 181.549,48.548 182.394,49.018 183.367 C 49.488 184.341,49.872 185.273,49.872 185.439 C 49.872 185.605,50.127 185.951,50.439 186.209 C 50.947 186.629,50.967 186.607,50.631 185.995 C 50.424 185.619,49.870 184.428,49.399 183.348 C 48.695 181.732,48.164 180.933,48.164 181.490 M282.242 182.144 C 282.051 182.383,281.786 182.963,281.655 183.433 C 281.459 184.133,281.548 184.079,282.144 183.138 C 282.857 182.012,282.929 181.286,282.242 182.144 M51.190 187.442 C 51.399 187.833,53.053 189.666,54.866 191.515 C 56.678 193.364,57.418 194.031,56.511 192.997 C 53.259 189.293,50.816 186.743,51.190 187.442 M278.447 188.985 C 277.718 190.164,272.537 195.284,271.389 195.960 C 270.736 196.345,270.739 196.353,271.464 196.180 C 272.384 195.960,278.208 190.250,278.923 188.868 C 279.616 187.527,279.300 187.605,278.447 188.985 M61.486 197.229 C 61.486 197.465,63.895 198.900,64.043 198.752 C 64.114 198.681,63.568 198.275,62.829 197.849 C 62.090 197.424,61.486 197.145,61.486 197.229 M373.317 218.531 C 374.059 219.148,374.013 220.666,373.253 220.666 C 373.052 220.666,372.570 220.961,372.183 221.321 C 371.795 221.682,370.325 222.377,368.915 222.867 C 367.506 223.356,366.302 223.907,366.240 224.090 C 366.177 224.274,365.908 224.424,365.642 224.424 C 365.376 224.424,365.158 224.553,365.158 224.711 C 365.158 224.869,364.529 225.187,363.760 225.417 C 362.211 225.882,357.136 230.630,356.148 232.540 C 355.845 233.126,355.133 233.880,354.565 234.215 C 353.593 234.789,352.868 236.312,352.863 237.789 C 352.862 238.095,352.639 238.529,352.367 238.755 C 352.096 238.980,351.727 239.960,351.548 240.931 C 350.683 245.630,350.357 247.324,349.890 249.530 C 349.612 250.845,349.258 253.074,349.103 254.483 C 348.461 260.335,348.143 262.249,347.658 263.208 C 347.376 263.764,347.034 264.833,346.898 265.585 C 346.762 266.336,346.512 267.120,346.341 267.327 C 345.782 268.003,345.314 271.331,345.324 274.562 C 345.333 277.644,345.308 277.743,344.449 278.134 C 343.443 278.593,341.478 276.737,341.847 275.678 C 342.196 274.679,343.416 273.612,344.210 273.612 C 345.251 273.612,345.229 272.998,344.174 272.596 C 342.687 272.031,342.577 267.207,343.972 263.706 C 344.308 262.861,344.841 260.632,345.155 258.753 C 345.469 256.874,346.023 253.877,346.385 252.092 C 346.748 250.307,347.272 247.541,347.550 245.944 C 348.490 240.554,350.199 235.565,351.525 234.346 C 352.045 233.867,352.571 233.015,352.694 232.451 C 353.034 230.894,353.935 229.296,354.720 228.859 C 355.106 228.644,355.960 227.718,356.618 226.803 C 357.967 224.922,359.425 223.980,361.913 223.383 C 363.689 222.956,366.445 221.557,367.037 220.781 C 368.482 218.885,372.158 217.568,373.317 218.531 M194.177 272.815 C 194.059 273.347,193.753 274.552,193.496 275.491 C 193.239 276.430,192.855 278.352,192.642 279.761 C 192.429 281.170,192.057 282.632,191.817 283.011 C 191.576 283.389,191.271 284.235,191.138 284.890 C 191.006 285.545,190.594 286.985,190.224 288.092 C 189.853 289.198,189.015 292.190,188.361 294.741 C 187.006 300.029,186.550 300.930,185.218 300.961 C 184.347 300.981,184.334 301.002,185.025 301.280 C 186.245 301.772,186.243 302.715,185.013 307.136 C 184.367 309.458,183.670 312.172,183.465 313.168 C 183.259 314.164,182.882 315.394,182.625 315.901 C 182.369 316.408,182.052 317.661,181.922 318.684 C 181.791 319.707,181.377 321.398,181.002 322.442 C 180.627 323.485,180.111 325.414,179.855 326.729 C 179.257 329.800,177.813 335.115,176.395 339.465 C 175.733 341.496,175.764 341.588,177.114 341.588 C 177.922 341.588,178.309 341.430,178.309 341.100 C 178.309 340.832,178.828 339.025,179.462 337.086 C 180.096 335.148,180.716 332.515,180.840 331.237 C 180.963 329.958,181.735 326.884,182.554 324.405 C 183.373 321.926,184.155 319.206,184.290 318.360 C 184.426 317.515,184.689 316.534,184.875 316.181 C 185.061 315.827,185.502 314.329,185.855 312.851 C 186.208 311.374,186.871 308.973,187.328 307.516 C 187.785 306.060,188.262 304.099,188.386 303.160 C 188.511 302.220,188.987 300.068,189.446 298.377 C 189.904 296.687,190.441 294.535,190.639 293.595 C 191.007 291.848,191.567 289.416,192.647 284.885 C 192.982 283.476,193.583 281.580,193.981 280.672 C 194.379 279.764,194.708 278.534,194.711 277.939 C 194.724 275.168,195.355 275.080,203.928 276.661 C 204.962 276.852,208.036 277.161,210.760 277.349 C 213.876 277.563,216.473 277.936,217.763 278.354 C 218.890 278.719,221.119 279.204,222.716 279.431 C 225.447 279.819,229.564 280.782,235.867 282.505 C 237.370 282.916,239.368 283.449,240.307 283.690 C 241.247 283.931,244.936 285.158,248.506 286.416 C 252.075 287.675,255.671 288.920,256.496 289.184 C 257.321 289.448,258.166 289.792,258.374 289.949 C 258.583 290.107,259.291 290.443,259.949 290.697 C 265.683 292.912,275.213 298.104,281.396 302.383 C 282.449 303.111,283.580 304.685,283.481 305.284 C 283.457 305.431,283.460 305.935,283.488 306.405 L 283.538 307.259 284.553 306.143 C 286.089 304.454,286.036 302.311,284.458 302.292 C 283.365 302.279,281.794 301.435,277.967 298.804 C 276.942 298.100,275.997 297.523,275.866 297.523 C 275.735 297.523,274.752 296.945,273.681 296.237 C 271.808 295.001,261.987 290.010,261.420 290.007 C 261.268 290.006,260.388 289.622,259.464 289.153 C 258.540 288.684,257.564 288.301,257.296 288.301 C 257.028 288.301,256.401 288.075,255.902 287.799 C 253.623 286.538,244.389 283.376,238.429 281.817 C 236.832 281.399,234.526 280.784,233.305 280.450 C 230.886 279.788,225.454 278.381,222.203 277.574 C 221.076 277.295,219.231 276.728,218.104 276.316 C 216.762 275.825,214.758 275.477,212.297 275.308 C 210.231 275.166,206.256 274.726,203.464 274.331 C 200.673 273.936,197.802 273.612,197.084 273.612 C 196.088 273.612,195.615 273.403,195.085 272.730 L 194.391 271.847 194.177 272.815 M136.431 272.836 C 136.167 273.254,135.364 273.477,133.533 273.641 C 128.499 274.093,121.126 275.048,120.328 275.352 C 119.879 275.522,118.330 275.669,116.886 275.677 C 115.397 275.685,113.670 275.917,112.895 276.212 C 111.116 276.890,107.435 277.817,102.164 278.915 C 99.831 279.401,97.402 280.017,96.765 280.283 C 96.128 280.549,94.387 280.998,92.895 281.281 C 90.030 281.824,89.524 281.965,82.493 284.173 C 80.051 284.940,77.948 285.568,77.820 285.568 C 77.693 285.568,76.155 286.238,74.405 287.058 C 69.701 289.259,67.098 290.350,66.550 290.350 C 66.282 290.350,65.917 290.494,65.739 290.670 C 65.560 290.846,63.263 292.087,60.633 293.427 C 58.003 294.767,55.362 296.237,54.763 296.693 C 54.165 297.150,53.559 297.523,53.418 297.523 C 53.277 297.523,52.844 297.809,52.456 298.158 C 52.068 298.507,50.828 299.314,49.699 299.952 C 44.575 302.846,36.429 310.272,30.817 317.165 C 29.886 318.308,27.503 322.050,26.939 323.255 C 26.572 324.039,25.952 325.218,25.561 325.875 C 24.290 328.013,23.570 329.444,23.570 329.831 C 23.570 330.040,23.322 330.707,23.020 331.313 C 22.437 332.482,21.869 334.341,20.821 338.514 C 20.013 341.730,20.008 341.588,20.930 341.588 C 21.614 341.588,21.756 341.326,22.127 339.368 C 24.084 329.053,31.092 316.944,39.283 309.728 C 43.590 305.933,48.135 302.301,50.091 301.091 C 50.682 300.726,52.219 299.725,53.507 298.868 C 57.694 296.082,64.869 292.332,69.290 290.621 C 71.667 289.701,74.078 288.735,74.646 288.474 C 77.716 287.065,93.264 282.182,96.499 281.611 C 97.250 281.478,98.480 281.151,99.231 280.885 C 101.001 280.257,109.604 278.736,111.384 278.736 C 112.140 278.736,113.250 278.469,113.851 278.143 C 114.640 277.715,115.752 277.548,117.848 277.542 C 119.445 277.537,121.827 277.350,123.143 277.125 C 127.632 276.357,131.339 275.928,133.892 275.880 L 136.444 275.833 136.717 277.711 C 136.867 278.745,137.292 280.468,137.661 281.541 C 138.031 282.613,138.548 284.458,138.810 285.640 C 139.073 286.821,139.554 288.711,139.880 289.838 C 140.205 290.965,140.607 292.579,140.772 293.424 C 140.937 294.270,141.368 295.961,141.729 297.182 C 142.925 301.221,143.420 303.138,143.770 305.093 C 143.960 306.156,144.431 307.614,144.816 308.333 C 145.201 309.052,145.520 310.026,145.524 310.499 C 145.528 310.971,145.757 312.357,146.034 313.578 C 146.311 314.799,146.707 316.798,146.915 318.019 C 147.122 319.240,148.026 322.852,148.923 326.046 C 149.820 329.240,150.831 333.006,151.169 334.415 C 151.508 335.824,152.062 337.592,152.401 338.343 C 152.739 339.095,153.020 340.132,153.024 340.649 C 153.031 341.493,153.152 341.588,154.227 341.588 C 155.646 341.588,155.678 341.392,154.708 338.653 C 154.078 336.874,153.329 334.198,151.993 328.950 C 151.777 328.104,151.137 325.722,150.569 323.655 C 150.001 321.588,149.405 319.206,149.244 318.360 C 149.084 317.515,148.723 316.055,148.442 315.115 C 148.162 314.176,147.688 312.408,147.390 311.187 C 147.091 309.966,146.455 307.465,145.975 305.630 C 145.014 301.957,145.139 301.324,146.839 301.232 C 147.474 301.198,147.347 301.123,146.406 300.976 C 145.673 300.862,144.957 300.538,144.813 300.256 C 143.540 297.756,142.800 295.695,142.620 294.146 C 142.503 293.134,142.050 291.597,141.614 290.730 C 141.179 289.864,140.556 287.925,140.230 286.422 C 139.293 282.097,137.260 273.514,137.017 272.856 C 136.810 272.297,136.771 272.295,136.431 272.836 M293.653 280.273 C 293.912 281.962,294.109 282.249,294.102 280.928 C 294.099 280.380,293.950 279.701,293.770 279.419 C 293.548 279.070,293.511 279.343,293.653 280.273 M362.961 324.748 C 362.330 326.750,362.794 327.801,364.133 327.403 C 365.028 327.137,369.243 336.742,369.836 340.398 C 370.008 341.456,371.648 342.323,371.648 341.356 C 371.648 340.284,367.993 330.539,367.219 329.550 C 366.888 329.126,366.304 328.164,365.922 327.412 C 365.540 326.661,364.850 325.334,364.389 324.464 L 363.549 322.882 362.961 324.748 " stroke="none" fill="#889baa" fill-rule="evenodd"></path></g></svg>